<svg width="157" height="53" viewBox="0 0 157 53" fill="none" xmlns="http://www.w3.org/2000/svg">
<path d="M20.8007 23.3609C26.0578 23.6529 30.0483 25.113 32.7724 27.741C35.5443 30.3205 36.9303 33.703 36.9303 37.8884C36.9303 40.8085 36.2373 43.4123 34.8513 45.6997C33.4654 47.9385 31.4104 49.7149 28.6863 51.0289C25.9622 52.343 22.6407 53 18.7218 53C15.0897 53 11.6487 52.416 8.39891 51.2479C5.19689 50.0312 2.61618 48.4252 0.656738 46.4298L3.16578 42.2686C4.83847 44.0207 7.06076 45.4564 9.83265 46.5757C12.6045 47.6465 15.5676 48.1818 18.7218 48.1818C22.8319 48.1818 26.01 47.2814 28.2562 45.4807C30.5023 43.6313 31.6254 41.1006 31.6254 37.8884C31.6254 34.725 30.5023 32.2429 28.2562 30.4421C26.01 28.6414 22.6168 27.741 18.0766 27.741H14.4923V23.8719L28.3995 6.13223H2.73566V1.46005H34.9947V5.1832L20.8007 23.3609Z" fill="#0F0F11"/>
<path fill-rule="evenodd" clip-rule="evenodd" d="M94.1398 26.281C94.1398 40.7956 82.5855 52.562 68.3325 52.562C54.0796 52.562 42.5253 40.7956 42.5253 26.281C42.5253 11.7664 54.0796 0 68.3325 0C82.5855 0 94.1398 11.7664 94.1398 26.281ZM89.8386 26.281C89.8386 38.3765 80.21 48.1818 68.3325 48.1818C56.4551 48.1818 46.8265 38.3765 46.8265 26.281C46.8265 14.1855 56.4551 4.38017 68.3325 4.38017C80.21 4.38017 89.8386 14.1855 89.8386 26.281Z" fill="#0F0F11"/>
<path fill-rule="evenodd" clip-rule="evenodd" d="M113.425 25.3156C111.145 25.3156 109.015 24.7481 107.033 23.6131C105.101 22.4288 103.565 20.8743 102.425 18.9497C101.335 16.9758 100.79 14.8785 100.79 12.6578C100.79 10.4371 101.335 8.36453 102.425 6.43994C103.565 4.46601 105.101 2.91154 107.033 1.77653C109.015 0.592177 111.145 0 113.425 0C115.704 0 117.81 0.592177 119.742 1.77653C121.675 2.91154 123.186 4.46601 124.276 6.43994C125.415 8.36453 125.985 10.4371 125.985 12.6578C125.985 14.8785 125.415 16.9758 124.276 18.9497C123.186 20.8743 121.675 22.4288 119.742 23.6131C117.81 24.7481 115.704 25.3156 113.425 25.3156ZM113.425 20.7263C115.555 20.7263 117.339 19.9614 118.776 18.4316C120.213 16.8524 120.931 14.9278 120.931 12.6578C120.931 10.3385 120.213 8.41387 118.776 6.88408C117.339 5.35429 115.555 4.58939 113.425 4.58939C111.294 4.58939 109.486 5.35429 107.999 6.88408C106.562 8.41387 105.844 10.3385 105.844 12.6578C105.844 14.9278 106.562 16.8524 107.999 18.4316C109.486 19.9614 111.294 20.7263 113.425 20.7263Z" fill="#0F0F11"/>
<path d="M110.006 49.743L143.08 0.666202L147.019 3.331L114.019 52.3338L110.006 49.743Z" fill="#0F0F11"/>
<path fill-rule="evenodd" clip-rule="evenodd" d="M143.749 53C141.469 53 139.339 52.4325 137.357 51.2975C135.424 50.1131 133.888 48.5587 132.749 46.6341C131.659 44.6601 131.114 42.5628 131.114 40.3422C131.114 38.1215 131.659 36.0489 132.749 34.1243C133.888 32.1504 135.424 30.5959 137.357 29.4609C139.339 28.2765 141.469 27.6844 143.749 27.6844C146.028 27.6844 148.134 28.2765 150.066 29.4609C151.998 30.5959 153.51 32.1504 154.6 34.1243C155.739 36.0489 156.309 38.1215 156.309 40.3422C156.309 42.5628 155.739 44.6601 154.6 46.6341C153.51 48.5587 151.998 50.1131 150.066 51.2975C148.134 52.4325 146.028 53 143.749 53ZM143.749 48.4106C145.879 48.4106 147.663 47.6457 149.1 46.1159C150.537 44.5368 151.255 42.6122 151.255 40.3422C151.255 38.0228 150.537 36.0982 149.1 34.5684C147.663 33.0386 145.879 32.2737 143.749 32.2737C141.618 32.2737 139.809 33.0386 138.323 34.5684C136.886 36.0982 136.168 38.0228 136.168 40.3422C136.168 42.6122 136.886 44.5368 138.323 46.1159C139.809 47.6457 141.618 48.4106 143.749 48.4106Z" fill="#0F0F11"/>
</svg>
